# xmcd
#
# Track frame offsets:
#	150
#	13892
#	28702
#	51952
#	82030
#	94908
#	110495
#	126511
#	144324
#	154485
#	171977
#	195129
#	203220
#	223320
#	265205
#	279995
#	291923
#	307516
#
# Disc length: 4269 seconds
#
# Revision: 1
# Processed by: cddbd v1.5.1PL0 Copyright (c) Steve Scherf et al.
# Submitted via: audiograbber 1.83.01
#
DISCID=0e10ab12
DTITLE=Various Artist - Die schoensten Lieder fuer Mama
DYEAR=2001
DGENRE=Volskmusik
TTITLE0=Luciano Pavarotti - Mamma
TTITLE1=Camillo Felgen - Ich hab Ehrfurcht vor schneeweissen Haaren
TTITLE2=Evelyne Dubourg - Clair de lune
TTITLE3=Staatskapelle Dresden - Blumenwalzer
TTITLE4=Freddy Black - Rote Rosen
TTITLE5=Bruno Bertone Sound Orchester - Feelings
TTITLE6=Budapester Philharmoniker - Morgenstimmung
TTITLE7=Thomas Dewald - Dein ist mein ganzes Herz
TTITLE8=Budapest Strings - Als die Mutter mich noch lehrte singen
TTITLE9=Orchestre Symphonique de RTL - Ich sing mein Lied heut' nur fuer Dich
TTITLE10=Werner Wollweg - Du bist die Welt fuer mich
TTITLE11=Budapest Strings - Wiegenlied
TTITLE12=Kölner Rundfunkorchester - Deine Mutter bleibt immer bei dir
TTITLE13=Johann-Strauss-Orchester Wien - Rosen aus dem Sueden
TTITLE14=Hermann Prey - Ich sing' mein schoenstes Lied
TTITLE15=Bruno Bertone Sound Orchester - What ever will be, will be: Que sera
TTITLE16=Bruno Bertone Sound Orchester - I will always love you
TTITLE17=Bruno Bertone Sound Orchester - Dankeschoen
EXTD=
EXTT0=
EXTT1=
EXTT2=
EXTT3=
EXTT4=
EXTT5=
EXTT6=
EXTT7=
EXTT8=
EXTT9=
EXTT10=
EXTT11=
EXTT12=
EXTT13=
EXTT14=
EXTT15=
EXTT16=
EXTT17=
PLAYORDER=
